<svg width="317" height="544" viewBox="0 0 317 544" fill="none" xmlns="http://www.w3.org/2000/svg">
<g clip-path="url(#clip0_33_21067)">
<path d="M374.919 414.949C454.135 357.842 472.057 247.331 414.949 168.115C357.842 88.9001 247.331 70.9779 168.116 128.085C88.9003 185.192 70.9782 295.704 128.085 374.919C185.193 454.134 295.704 472.056 374.919 414.949Z" stroke="#F8F8F9" stroke-width="10"/>
<path d="M315.406 97.7807C311.005 119.373 301.591 141.097 287.818 161.443C274.046 181.789 256.242 200.271 235.649 215.6C215.056 230.93 192.164 242.742 168.567 250.214C144.97 257.686 121.234 260.639 99.0068 258.868" stroke="#F8F8F9" stroke-width="10"/>
<path d="M453.677 285.246C431.169 281.977 406.705 283.793 382.117 290.558C357.529 297.319 333.456 308.854 311.702 324.297C289.947 339.738 271.073 358.687 256.496 379.725C241.918 400.762 232.014 423.34 227.527 445.77" stroke="#F8F8F9" stroke-width="10"/>
<path d="M168.115 128.085L374.919 414.949" stroke="#F8F8F9" stroke-width="10"/>
<path d="M414.95 168.115L128.086 374.919" stroke="#F8F8F9" stroke-width="10"/>
</g>
<defs>
<clipPath id="clip0_33_21067">
<rect width="389" height="389" fill="white" transform="translate(0 227.484) rotate(-35.7883)"/>
</clipPath>
</defs>
</svg>
