<svg width="70" height="67" viewBox="0 0 70 67" fill="none" xmlns="http://www.w3.org/2000/svg">
<path d="M20.304 16.6364V9.30306C20.304 7.35814 21.0767 5.49288 22.4519 4.11761C23.8272 2.74234 25.6924 1.96973 27.6374 1.96973H42.304C44.249 1.96973 46.1142 2.74234 47.4895 4.11761C48.8648 5.49288 49.6374 7.35814 49.6374 9.30306V16.6364M34.9707 34.9697V35.0064M1.9707 23.9697C1.9707 22.0248 2.74332 20.1595 4.11859 18.7843C5.49385 17.409 7.35912 16.6364 9.30404 16.6364H60.6374C62.5823 16.6364 64.4476 17.409 65.8228 18.7843C67.1981 20.1595 67.9707 22.0248 67.9707 23.9697V56.9697C67.9707 58.9146 67.1981 60.7799 65.8228 62.1552C64.4476 63.5304 62.5823 64.3031 60.6374 64.3031H9.30404C7.35912 64.3031 5.49385 63.5304 4.11859 62.1552C2.74332 60.7799 1.9707 58.9146 1.9707 56.9697V23.9697Z" stroke="#016938" stroke-width="3.93993" stroke-linecap="round" stroke-linejoin="round"/>
<path d="M1.9707 38.6362C12.2065 43.7941 23.5088 46.4808 34.9707 46.4808C46.4326 46.4808 57.7349 43.7941 67.9707 38.6362" stroke="#016938" stroke-width="3.93993" stroke-linecap="round" stroke-linejoin="round"/>
</svg>
