<svg width="58" height="58" viewBox="0 0 58 58" fill="none" xmlns="http://www.w3.org/2000/svg">
<path d="M30.8121 6.646V10.8752H35.5851C36.4333 10.8752 37.2622 11.1313 37.9631 11.6074L42.0641 14.3962C42.1656 14.4639 42.2784 14.4986 42.4025 14.5002H52.3156C52.7963 14.5002 53.2574 14.6911 53.5973 15.031C53.9372 15.3709 54.1281 15.832 54.1281 16.3127C54.1281 16.7934 53.9372 17.2544 53.5973 17.5943C53.2574 17.9342 52.7963 18.1252 52.3156 18.1252H48.5021L56.6366 36.6852C56.7994 37.0563 56.8331 37.4712 56.7323 37.8637C56.6315 38.2562 56.4022 38.6036 56.0808 38.8505C55.8391 39.0293 55.5894 39.1953 55.3316 39.3483C54.7198 39.7163 54.0817 40.0386 53.4225 40.3126C51.2365 41.2267 48.8898 41.6942 46.5205 41.6877C44.1518 41.6979 41.8053 41.2311 39.6209 40.315C38.9616 40.0402 38.3234 39.7171 37.7117 39.3483C37.4547 39.2009 37.2069 39.0379 36.9698 38.8602L36.9577 38.8505C36.6363 38.6036 36.407 38.2562 36.3062 37.8637C36.2055 37.4712 36.2391 37.0563 36.4019 36.6852L44.5412 18.1252H42.4C41.5518 18.1252 40.7229 17.869 40.022 17.3929L35.921 14.6041C35.8211 14.5364 35.7033 14.5002 35.5826 14.5002H30.8121V49.5418H41.6557C42.1364 49.5418 42.5974 49.7328 42.9373 50.0727C43.2773 50.4126 43.4682 50.8736 43.4682 51.3543C43.4682 51.835 43.2773 52.296 42.9373 52.636C42.5974 52.9759 42.1364 53.1668 41.6557 53.1668H16.3436C15.8628 53.1668 15.4018 52.9759 15.0619 52.636C14.722 52.296 14.5311 51.835 14.5311 51.3543C14.5311 50.8736 14.722 50.4126 15.0619 50.0727C15.4018 49.7328 15.8628 49.5418 16.3436 49.5418H27.1871V14.5002H22.4142C22.2936 14.5002 22.1758 14.5364 22.0759 14.6041L17.9772 17.3929C17.2764 17.869 16.4475 18.1252 15.5992 18.1252H13.4581L21.5974 36.6852C21.7549 37.0457 21.7908 37.4478 21.6997 37.8306C21.6086 38.2133 21.3954 38.5561 21.0923 38.807C20.899 38.9641 20.7056 39.1115 20.3431 39.3459C19.7323 39.7423 19.0925 40.0921 18.4291 40.3923C16.247 41.3856 13.8764 41.8967 11.4788 41.8907C9.08125 41.8967 6.71059 41.3856 4.52847 40.3923C3.8651 40.0921 3.22529 39.7423 2.61447 39.3459C2.35723 39.1798 2.10804 39.0016 1.86772 38.8118C1.5664 38.5585 1.35443 38.2151 1.26306 37.8322C1.17168 37.4493 1.20575 37.0472 1.36022 36.6852L9.49714 18.1252H5.68605C5.20535 18.1252 4.74433 17.9342 4.40442 17.5943C4.06451 17.2544 3.87355 16.7934 3.87355 16.3127C3.87355 15.832 4.06451 15.3709 4.40442 15.031C4.74433 14.6911 5.20535 14.5002 5.68605 14.5002H15.5992C15.7217 14.5002 15.8352 14.4655 15.94 14.3962L20.0362 11.6074C20.7371 11.1289 21.5684 10.8752 22.4166 10.8752H27.1871V6.646C27.1871 6.16529 27.3781 5.70427 27.718 5.36436C28.0579 5.02446 28.5189 4.8335 28.9996 4.8335C29.4803 4.8335 29.9414 5.02446 30.2813 5.36436C30.6212 5.70427 30.8121 6.16529 30.8121 6.646ZM5.29939 36.7287C7.2009 37.7425 9.32389 38.2698 11.4788 38.2632C13.6337 38.2698 15.7567 37.7425 17.6582 36.7287L11.4788 22.6395L5.29939 36.7287ZM40.3652 36.6707C40.5634 36.7673 40.7849 36.8688 41.0298 36.9752C42.3106 37.5141 44.1835 38.0627 46.5205 38.0627C48.6509 38.0684 50.7551 37.5925 52.6757 36.6707L46.5205 22.6371L40.3652 36.6707Z" fill="white"/>
</svg>
