<svg xmlns="http://www.w3.org/2000/svg" width="29" height="29" viewBox="0 0 29 29" fill="none">
  <path d="M29 14.5C29 6.49248 22.5075 9.50587e-09 14.5 2.123e-08C6.49248 3.29541e-08 9.5059e-09 6.49248 2.123e-08 14.5C3.18256e-08 21.7367 5.30165 27.7358 12.2346 28.8246L12.2346 18.6924L8.55196 18.6924L8.55196 14.5L12.2346 14.5L12.2346 11.3047C12.2346 7.67107 14.4001 5.66257 17.7116 5.66257C19.298 5.66257 20.9578 5.946 20.9578 5.946L20.9578 9.51441L19.1287 9.51441C17.3282 9.51441 16.7654 10.6318 16.7654 11.7798L16.7654 14.5L20.7865 14.5L20.1442 18.6924L16.7654 18.6924L16.7654 28.8246C23.6984 27.7378 29 21.7388 29 14.5Z" fill="#016938"/>
  <path d="M20.145 18.6924L20.7873 14.5001L16.7662 14.5001L16.7662 11.7799C16.7662 10.6339 17.327 9.51448 19.1295 9.51448L20.9586 9.51448L20.9586 5.94606C20.9586 5.94606 19.2988 5.66263 17.7123 5.66263C14.4009 5.66263 12.2353 7.6691 12.2353 11.3048L12.2353 14.5001L8.55273 14.5001L8.55273 18.6924L12.2353 18.6924L12.2353 28.8247C12.9735 28.9409 13.73 29.0001 14.5008 29.0001C15.2715 29.0001 16.0281 28.9389 16.7662 28.8247L16.7662 18.6924L20.145 18.6924Z" fill="white"/>
</svg>
