<svg xmlns="http://www.w3.org/2000/svg" width="29" height="29" fill="none"><g clip-path="url(#a)"><path fill="#fff" d="M29 14.5C29 6.492 22.508 0 14.5 0S0 6.492 0 14.5c0 7.237 5.302 13.236 12.235 14.325V18.692H8.552V14.5h3.683v-3.195c0-3.634 2.165-5.642 5.477-5.642 1.586 0 3.246.283 3.246.283v3.568h-1.83c-1.8 0-2.363 1.118-2.363 2.266v2.72h4.021l-.642 4.192h-3.379v10.133C23.698 27.738 29 21.739 29 14.5"/><path fill="#004525" d="m20.145 18.692.642-4.192h-4.02v-2.72c0-1.146.56-2.266 2.363-2.266h1.829V5.946s-1.66-.283-3.247-.283c-3.311 0-5.477 2.006-5.477 5.642V14.5H8.553v4.192h3.682v10.133q1.109.175 2.266.175 1.156-.002 2.265-.175V18.692z"/></g><defs><clipPath id="a"><path fill="#fff" d="M0 0h29v29H0z"/></clipPath></defs></svg>