<svg width="144" height="126" viewBox="0 0 144 126" fill="none" xmlns="http://www.w3.org/2000/svg">
<path d="M109.049 2.4174C113.867 12.9397 115.495 24.6767 113.571 36.0912C111.661 47.6646 105.936 58.4907 97.7085 66.7545C90.0966 74.3866 79.3059 81.2145 68.0659 80.5238C62.6539 80.1758 57.5619 78.0375 53.6361 74.2575C49.8833 70.622 47.2412 65.7981 46.1736 60.673C43.9582 49.8855 48.9204 38.7754 57.0658 31.7361C61.2296 28.1602 66.3053 25.1112 71.9174 24.8327C78.0062 24.5115 83.0583 28.3508 86.9894 32.5468C94.393 40.4674 98.6879 51.2288 98.9219 62.0656C99.1702 73.0614 94.899 83.6612 87.4887 91.7557C80.1623 99.7146 70.1218 104.906 59.3419 105.775C48.9778 106.64 38.3562 103.555 29.8757 97.5569C27.827 96.139 25.9461 94.4498 24.1866 92.6857C22.6003 91.0662 24.9894 88.418 26.6133 90.0981C33.1835 96.9403 42.2786 101.218 51.6871 102.201C61.4508 103.216 71.1067 100.526 78.9733 94.6644C86.8773 88.8638 92.6278 80.1173 94.5496 70.4645C96.4715 60.8118 94.5184 50.4492 89.5301 41.96C87.0057 37.7341 83.6636 33.6775 79.6643 30.8649C77.5173 29.4237 75.1186 28.3894 72.525 28.3975C70.1277 28.4521 67.7874 29.1422 65.6111 30.234C56.9667 34.5635 50.1184 43.5685 49.2247 53.2573C48.3865 62.4926 53.526 72.3135 62.3536 75.7506C71.8451 79.4486 82.4889 74.5556 89.977 68.7602C98.5203 62.2297 105.022 52.9354 108.271 42.7155C111.496 32.5937 111.565 21.5695 108.598 11.3298C107.871 8.92873 107.045 6.50444 105.976 4.23001C105.611 3.36595 105.647 2.3378 106.557 1.7758C107.323 1.38691 108.623 1.5908 109.049 2.4174Z" fill="#016938"/>
<path d="M21.0597 99.9796C21.0478 98.0589 21.0966 96.1008 21.2204 94.264C21.2564 93.2359 21.3906 92.2309 21.5248 91.226C21.5982 90.2586 21.7699 89.3144 22.3717 88.5238C23.7432 86.6714 26.4686 87.4201 28.441 87.6278C30.4134 87.8355 32.3018 88.1788 34.2277 88.5828C36.4856 89.1172 35.6723 92.5531 33.4145 92.0187C31.8438 91.6469 30.2498 91.3733 28.6934 91.1604C27.9455 91.0352 27.1744 91.0082 26.4265 90.883C26.0713 90.8508 25.6179 90.7953 25.2627 90.7631C25.1645 90.7399 25.0057 90.7541 24.9075 90.7308C24.9682 90.6934 25.0289 90.6559 25.1271 90.6791C25.2485 90.6042 25.2717 90.506 25.3931 90.4311C25.3092 90.5667 25.2859 90.6649 25.3092 90.5668C25.2642 91.8519 24.9905 93.4459 24.8616 94.8667C24.7843 96.5071 24.7071 98.1475 24.728 99.8111C24.5862 102.162 21.0394 102.255 21.0597 99.9796Z" fill="#016938"/>
</svg>
