<svg width="58" height="58" viewBox="0 0 58 58" fill="none" xmlns="http://www.w3.org/2000/svg">
<path d="M51.3232 12.7805L29.5732 5.53052C29.2011 5.40649 28.7989 5.40649 28.4268 5.53052L6.6768 12.7805C6.31589 12.9008 6.002 13.1317 5.77957 13.4403C5.55715 13.7489 5.43747 14.1197 5.4375 14.5001V32.6251C5.4375 33.1058 5.62846 33.5669 5.96837 33.9068C6.30828 34.2467 6.7693 34.4376 7.25 34.4376C7.73071 34.4376 8.19172 34.2467 8.53163 33.9068C8.87154 33.5669 9.0625 33.1058 9.0625 32.6251V17.015L16.6727 19.5502C14.6508 22.8168 14.0078 26.7523 14.885 30.4925C15.7622 34.2327 18.0878 37.472 21.3512 39.499C17.2731 41.0986 13.7478 43.9918 11.1695 47.9476C11.0354 48.1469 10.9423 48.3708 10.8955 48.6064C10.8488 48.842 10.8493 49.0846 10.8971 49.32C10.9449 49.5554 11.039 49.7789 11.1739 49.9776C11.3089 50.1763 11.482 50.3463 11.6832 50.4775C11.8843 50.6087 12.1096 50.6986 12.3459 50.742C12.5821 50.7854 12.8246 50.7814 13.0593 50.7303C13.294 50.6791 13.5162 50.5818 13.713 50.4441C13.9097 50.3063 14.0771 50.1308 14.2055 49.9277C17.6198 44.6896 23.012 41.6876 29 41.6876C34.988 41.6876 40.3802 44.6896 43.7945 49.9277C44.0604 50.3228 44.471 50.5974 44.9377 50.6922C45.4044 50.7869 45.8896 50.6942 46.2885 50.434C46.6874 50.1739 46.9678 49.7672 47.0693 49.3019C47.1707 48.8366 47.0849 48.3501 46.8305 47.9476C44.2522 43.9918 40.7133 41.0986 36.6487 39.499C39.9091 37.4721 42.2325 34.2349 43.1095 30.4974C43.9865 26.7599 43.3456 22.8272 41.3273 19.5615L51.3232 16.2311C51.6842 16.1108 51.9982 15.88 52.2207 15.5714C52.4432 15.2628 52.5629 14.8919 52.5629 14.5115C52.5629 14.131 52.4432 13.7602 52.2207 13.4515C51.9982 13.1429 51.6842 12.9121 51.3232 12.7919V12.7805ZM39.875 27.1876C39.8755 28.9069 39.4683 30.6018 38.6869 32.1333C37.9055 33.6647 36.7722 34.9891 35.3798 35.9977C33.9875 37.0063 32.3759 37.6705 30.6771 37.9356C28.9784 38.2008 27.2411 38.0594 25.6076 37.5231C23.9741 36.9867 22.491 36.0707 21.2801 34.8503C20.0692 33.6298 19.1648 32.1396 18.6414 30.5019C18.1179 28.8643 17.9901 27.1259 18.2686 25.4293C18.5471 23.7327 19.2238 22.1263 20.2434 20.7419L28.4268 23.4607C28.7989 23.5847 29.2011 23.5847 29.5732 23.4607L37.7566 20.7419C39.1335 22.6089 39.8759 24.8679 39.875 27.1876ZM29 19.8402L12.982 14.5001L29 9.16006L45.018 14.5001L29 19.8402Z" fill="white"/>
</svg>
