<svg width="58" height="58" viewBox="0 0 58 58" fill="none" xmlns="http://www.w3.org/2000/svg">
<g clip-path="url(#clip0_206_16904)">
<path d="M46.6636 53.128H11.3382C11.092 53.128 10.856 53.0302 10.682 52.8562C10.5079 52.6821 10.4102 52.4461 10.4102 52.2V42.4368C10.4102 37.5573 13.8322 33.1945 18.9292 31.5798C20.2955 31.1487 21.7201 30.9306 23.1528 30.9331H26.7691C27.0152 30.9331 27.2512 31.0309 27.4253 31.2049C27.5993 31.379 27.6971 31.615 27.6971 31.8611C27.6971 32.1072 27.5993 32.3433 27.4253 32.5173C27.2512 32.6914 27.0152 32.7891 26.7691 32.7891H23.1528C21.9099 32.7867 20.6741 32.9759 19.4889 33.35C15.1679 34.7188 12.265 38.3705 12.265 42.4374V51.272H45.7356V42.4368C45.7356 38.3699 42.8356 34.7182 38.5117 33.3494C37.3269 32.9756 36.0915 32.7867 34.849 32.7891H31.2327C30.9866 32.7891 30.7506 32.6914 30.5765 32.5173C30.4025 32.3433 30.3047 32.1072 30.3047 31.8611C30.3047 31.615 30.4025 31.379 30.5765 31.2049C30.7506 31.0309 30.9866 30.9331 31.2327 30.9331H34.849C36.2817 30.9306 37.7063 31.1487 39.0726 31.5798C44.1679 33.1945 47.5916 37.5573 47.5916 42.4368V52.2C47.5916 52.4461 47.4939 52.6821 47.3198 52.8562C47.1458 53.0302 46.9098 53.128 46.6636 53.128Z" fill="white"/>
<path d="M24.724 38.889H24.6805C24.5514 38.8829 24.4249 38.8498 24.3092 38.792C24.1936 38.7342 24.0913 38.6528 24.0089 38.5531L19.283 32.8355C19.1262 32.6457 19.0512 32.4015 19.0745 32.1564C19.0978 31.9114 19.2174 31.6856 19.4072 31.5288C19.5969 31.3719 19.8412 31.2969 20.0862 31.3202C20.3313 31.3435 20.5571 31.4631 20.7139 31.6529L24.7896 36.5829L27.6205 33.7525L26.1839 32.5803C25.9932 32.4245 25.8722 32.1994 25.8475 31.9545C25.8229 31.7095 25.8965 31.4648 26.0522 31.2741C26.208 31.0835 26.4331 30.9625 26.678 30.9378C26.923 30.9131 27.1677 30.9867 27.3584 31.1425L29.5897 32.9637C29.6902 33.0457 29.7724 33.1479 29.831 33.2637C29.8896 33.3794 29.9233 33.5062 29.9298 33.6358C29.9364 33.7654 29.9157 33.8949 29.8691 34.016C29.8225 34.1371 29.751 34.2471 29.6592 34.3389L25.3817 38.6164C25.2955 38.7029 25.1929 38.7715 25.0801 38.8182C24.9672 38.865 24.8462 38.8891 24.724 38.889Z" fill="white"/>
<path d="M33.2794 38.8889C33.0334 38.8887 32.7974 38.7909 32.6235 38.6168L28.346 34.3393C28.2542 34.2476 28.1827 34.1376 28.1361 34.0165C28.0895 33.8954 28.0688 33.7659 28.0754 33.6363C28.082 33.5067 28.1156 33.3799 28.1742 33.2642C28.2328 33.1484 28.315 33.0462 28.4156 32.9642L30.6468 31.143C30.8375 30.9872 31.0822 30.9136 31.3272 30.9383C31.5721 30.963 31.7972 31.084 31.953 31.2746C32.1087 31.4653 32.1824 31.71 32.1577 31.955C32.133 32.1999 32.012 32.425 31.8213 32.5808L30.3858 33.753L33.2162 36.5834L37.2919 31.6534C37.4487 31.4636 37.6745 31.3439 37.9195 31.3207C38.1646 31.2974 38.4089 31.3724 38.5986 31.5292C38.7884 31.6861 38.908 31.9118 38.9313 32.1569C38.9546 32.402 38.8796 32.6462 38.7227 32.836L33.9969 38.5536C33.9143 38.6534 33.8117 38.7348 33.6957 38.7925C33.5797 38.8503 33.4529 38.8831 33.3235 38.8889H33.2794Z" fill="white"/>
<path d="M34.0882 32.7889C33.842 32.7889 33.606 32.6911 33.432 32.5171C33.2579 32.3431 33.1602 32.107 33.1602 31.8609V26.6409C33.1602 26.3948 33.2579 26.1587 33.432 25.9847C33.606 25.8107 33.842 25.7129 34.0882 25.7129C34.3343 25.7129 34.5703 25.8107 34.7444 25.9847C34.9184 26.1587 35.0162 26.3948 35.0162 26.6409V31.8609C35.0162 32.107 34.9184 32.3431 34.7444 32.5171C34.5703 32.6911 34.3343 32.7889 34.0882 32.7889Z" fill="white"/>
<path d="M23.9143 32.7891C23.6682 32.7891 23.4322 32.6914 23.2581 32.5173C23.0841 32.3433 22.9863 32.1073 22.9863 31.8611V26.6411C22.9863 26.395 23.0841 26.159 23.2581 25.9849C23.4322 25.8109 23.6682 25.7131 23.9143 25.7131C24.1604 25.7131 24.3965 25.8109 24.5705 25.9849C24.7446 26.159 24.8423 26.395 24.8423 26.6411V31.8611C24.8423 32.1073 24.7446 32.3433 24.5705 32.5173C24.3965 32.6914 24.1604 32.7891 23.9143 32.7891Z" fill="white"/>
<path d="M28.9986 30.0442C27.9148 30.0428 26.8449 29.8001 25.8666 29.3337L25.8365 29.3192C22.6053 27.7659 21.708 24.6867 21.4789 23.5192C20.6391 22.9113 20.1067 22.1365 19.8932 21.2108C19.5794 19.8518 20.0759 18.5474 20.3978 17.8932C18.9855 14.082 18.9716 11.0735 20.3566 8.94901C21.7892 6.75023 24.2461 6.25665 25.1213 6.14877L25.1405 6.13427C26.2598 5.31388 27.6115 4.87158 28.9992 4.87158C30.387 4.87158 31.7386 5.31388 32.858 6.13427L32.8771 6.14877C33.7546 6.25723 36.2086 6.75081 37.6406 8.94959C39.0251 11.0741 39.0112 14.0826 37.6012 17.8961C37.9231 18.5503 38.4196 19.8547 38.1058 21.2137C37.8924 22.1417 37.3599 22.9142 36.5201 23.5221C36.2881 24.6879 35.3943 27.7671 32.1625 29.3221L32.1295 29.3377C31.1514 29.8032 30.0818 30.0445 28.9986 30.0442ZM28.9986 6.72239C28.0052 6.72308 27.038 7.04155 26.2384 7.63125C26.1369 7.70549 26.0818 7.75189 26.0818 7.75247C25.9257 7.88932 25.7268 7.96764 25.5192 7.97403C25.4989 7.97403 23.0989 8.12309 21.9023 9.97677C21.4331 10.7029 21.1918 11.6211 21.1849 12.7028C21.1762 14.0837 21.5445 15.7396 22.2793 17.6252C22.3326 17.7619 22.3527 17.9093 22.338 18.0553C22.3233 18.2013 22.2742 18.3417 22.1947 18.4651C22.1894 18.4738 21.4378 19.6831 21.7017 20.8019C21.8322 21.354 22.1947 21.8041 22.8095 22.1771C22.9325 22.2516 23.0366 22.3538 23.1134 22.4755C23.1902 22.5972 23.2377 22.7351 23.252 22.8783C23.3509 23.5306 23.5463 24.1645 23.832 24.7592C24.4526 26.0758 25.398 27.0467 26.6415 27.6447L26.6607 27.654H26.6636C27.3937 28.0025 28.1925 28.1834 29.0015 28.1834C29.8106 28.1834 30.6094 28.0025 31.3395 27.654L31.3621 27.643C32.6057 27.045 33.5505 26.0741 34.1711 24.7575C34.457 24.1615 34.6525 23.5262 34.7511 22.8725C34.7656 22.7301 34.8131 22.5931 34.8898 22.4723C34.9666 22.3515 35.0704 22.2502 35.193 22.1765C35.8113 21.8018 36.1744 21.3488 36.3026 20.7926C36.5601 19.6761 35.8148 18.4761 35.8073 18.4645C35.7278 18.3412 35.6786 18.2007 35.6639 18.0548C35.6492 17.9088 35.6693 17.7614 35.7226 17.6246C36.4574 15.7396 36.8246 14.0832 36.817 12.7022C36.8101 11.6182 36.5688 10.7 36.0996 9.97619C34.903 8.12019 32.5036 7.97519 32.4786 7.97345C32.2714 7.96617 32.0731 7.88702 31.9178 7.74957C31.9178 7.74957 31.8633 7.70375 31.7635 7.63067C30.9627 7.04016 29.9937 6.72183 28.9986 6.72239Z" fill="white"/>
<path d="M28.9995 49.8856C28.8781 49.8858 28.7578 49.862 28.6455 49.8156C28.5332 49.7692 28.4312 49.7011 28.3453 49.6153L25.5468 46.8313C25.4458 46.7308 25.3694 46.6084 25.3233 46.4737C25.2772 46.3389 25.2628 46.1953 25.2812 46.0541L26.4238 37.2073C26.4362 37.0856 26.4726 36.9675 26.5309 36.8598C26.5892 36.7522 26.6682 36.6572 26.7634 36.5802C26.8586 36.5032 26.968 36.4459 27.0855 36.4114C27.2029 36.3769 27.326 36.366 27.4477 36.3793C27.5694 36.3926 27.6872 36.4298 27.7945 36.4888C27.9017 36.5479 27.9962 36.6275 28.0725 36.7232C28.1488 36.8189 28.2054 36.9288 28.2391 37.0464C28.2728 37.1641 28.2829 37.2873 28.2687 37.4089C28.2674 37.4211 28.2658 37.4331 28.2641 37.4451L27.1801 45.8377L28.9995 47.6491L30.819 45.8401L29.735 37.4475C29.7034 37.2033 29.7702 36.9565 29.9206 36.7616C30.071 36.5666 30.2926 36.4393 30.5368 36.4078C30.6577 36.3922 30.7805 36.4005 30.8982 36.4324C31.0159 36.4642 31.1262 36.519 31.2227 36.5934C31.4177 36.7438 31.5449 36.9655 31.5765 37.2097L32.7185 46.0564C32.7368 46.1976 32.7224 46.3412 32.6763 46.476C32.6303 46.6108 32.5538 46.7331 32.4529 46.8336L29.6544 49.6176C29.5682 49.7031 29.466 49.7708 29.3536 49.8168C29.2413 49.8628 29.1209 49.8861 28.9995 49.8856Z" fill="white"/>
<path d="M30.6909 38.2568H27.3124C27.0875 38.2568 26.8702 38.1751 26.701 38.0269C26.5318 37.8787 26.4222 37.6741 26.3925 37.4512L26.1605 35.7257C26.128 35.4817 26.1937 35.2348 26.3432 35.0393C26.4927 34.8438 26.7137 34.7157 26.9577 34.6831C27.2017 34.6506 27.4486 34.7163 27.6441 34.8658C27.8396 35.0153 27.9677 35.2364 28.0003 35.4803L28.1232 36.4014H29.8766L29.9995 35.4798C30.0129 35.3566 30.0508 35.2373 30.1109 35.1289C30.1711 35.0206 30.2523 34.9254 30.3498 34.8489C30.4473 34.7725 30.5591 34.7163 30.6787 34.6836C30.7982 34.651 30.9231 34.6427 31.0459 34.659C31.1688 34.6754 31.2871 34.7162 31.3939 34.7789C31.5008 34.8417 31.594 34.9252 31.6681 35.0246C31.7422 35.1239 31.7956 35.237 31.8253 35.3573C31.855 35.4777 31.8604 35.6027 31.841 35.7251L31.609 37.4518C31.5793 37.6743 31.4698 37.8785 31.301 38.0266C31.1322 38.1746 30.9154 38.2564 30.6909 38.2568Z" fill="white"/>
</g>
<defs>
<clipPath id="clip0_206_16904">
<rect width="58" height="58" fill="white"/>
</clipPath>
</defs>
</svg>
