<svg width="67" height="66" viewBox="0 0 67 66" fill="none" xmlns="http://www.w3.org/2000/svg">
<path d="M61.115 32.3334C61.115 47.6754 48.6778 60.1125 33.3358 60.1125M61.115 32.3334C61.115 16.9914 48.6778 4.5542 33.3358 4.5542M61.115 32.3334H5.55664M33.3358 60.1125C17.9938 60.1125 5.55664 47.6754 5.55664 32.3334M33.3358 60.1125C26.2028 52.6228 22.2241 42.6763 22.2241 32.3334C22.2241 21.9905 26.2028 12.0439 33.3358 4.5542M33.3358 60.1125C40.4688 52.6228 44.4475 42.6763 44.4475 32.3334C44.4475 21.9905 40.4688 12.0439 33.3358 4.5542M5.55664 32.3334C5.55664 16.9914 17.9938 4.5542 33.3358 4.5542" stroke="#016938" stroke-width="4.6" stroke-linecap="round" stroke-linejoin="round"/>
</svg>
