<svg xmlns="http://www.w3.org/2000/svg" width="29" height="29" fill="none"><rect width="29" height="29" fill="#fff" rx="4.143"/><path fill="#004525" d="M14.75 6.214c-2.315 0-2.61.01-3.518.054-.909.043-1.527.183-2.069.396a4.1 4.1 0 0 0-1.513.986 4.3 4.3 0 0 0-.986 1.513c-.212.541-.357 1.165-.396 2.068-.039.909-.053 1.199-.053 3.519 0 2.315.01 2.605.053 3.519.044.908.184 1.527.396 2.068.218.561.508 1.04.986 1.513.474.474.953.769 1.513.986.542.213 1.165.353 2.069.397.909.043 1.199.053 3.519.053 2.315 0 2.605-.01 3.518-.053.909-.044 1.528-.184 2.074-.397a4.2 4.2 0 0 0 1.508-.986 4.3 4.3 0 0 0 .986-1.513c.207-.541.352-1.16.396-2.068.039-.909.053-1.199.053-3.519 0-2.315-.01-2.605-.053-3.519-.044-.908-.189-1.527-.396-2.068a4.2 4.2 0 0 0-.986-1.513 4.2 4.2 0 0 0-1.513-.986c-.546-.213-1.165-.353-2.074-.396s-1.198-.054-3.513-.054m-.763 1.537h.764c2.276 0 2.547.01 3.446.049.831.038 1.28.179 1.585.295.396.154.681.338.981.638s.483.584.638.98c.116.3.256.755.295 1.586.039.899.048 1.17.048 3.446s-.01 2.547-.048 3.446c-.039.832-.179 1.281-.295 1.586a2.66 2.66 0 0 1-.638.98c-.3.3-.58.484-.981.639-.3.116-.754.256-1.585.295-.9.038-1.17.048-3.446.048s-2.548-.01-3.447-.048c-.831-.039-1.28-.18-1.585-.295a2.65 2.65 0 0 1-.981-.638c-.3-.3-.483-.585-.638-.981-.116-.3-.256-.754-.295-1.586-.039-.899-.048-1.17-.048-3.446s.01-2.547.048-3.446c.039-.831.179-1.28.295-1.585.155-.397.338-.682.638-.981.3-.3.585-.484.981-.638.3-.116.754-.257 1.585-.295.788-.039 1.093-.049 2.683-.049m5.317 1.417a1.025 1.025 0 1 0 0 2.05 1.025 1.025 0 0 0 0-2.05m-4.553 1.198a4.38 4.38 0 0 0-4.38 4.38 4.38 4.38 0 0 0 4.38 4.378 4.38 4.38 0 0 0 4.379-4.379 4.375 4.375 0 0 0-4.38-4.379m0 1.537a2.84 2.84 0 0 1 2.842 2.842 2.84 2.84 0 0 1-2.842 2.842 2.84 2.84 0 0 1-2.842-2.842 2.84 2.84 0 0 1 2.842-2.842"/></svg>