<svg xmlns="http://www.w3.org/2000/svg" width="32" height="32" fill="none"><g clip-path="url(#a)"><path fill="#f17c2d" d="M16 7.8a8.2 8.2 0 1 0 8.2 8.2A8.18 8.18 0 0 0 16 7.8m0 13.54a5.34 5.34 0 1 1 0-10.68 5.34 5.34 0 0 1 0 10.68M26.46 7.46a2 2 0 1 1-4 0 2 2 0 0 1 4 0m5.42 2a9.42 9.42 0 0 0-2.58-6.7A9.42 9.42 0 0 0 22.6.12C20 0 12 0 9.4.12A9.46 9.46 0 0 0 2.7 2.7 9.42 9.42 0 0 0 .12 9.4C0 12 0 20 .12 22.6a9.42 9.42 0 0 0 2.58 6.7 9.46 9.46 0 0 0 6.7 2.58c2.64.16 10.56.16 13.2 0a9.42 9.42 0 0 0 6.7-2.58 9.42 9.42 0 0 0 2.58-6.7C32 20 32 12 31.88 9.4zm-3.4 16a5.4 5.4 0 0 1-3.04 3.04 36 36 0 0 1-9.44.64 35.8 35.8 0 0 1-9.42-.64 5.4 5.4 0 0 1-3.04-3.04c-.84-2.12-.66-7.12-.66-9.44s-.18-7.34.66-9.44a5.3 5.3 0 0 1 3.04-3.06A35.8 35.8 0 0 1 16 2.88a36 36 0 0 1 9.44.64 5.4 5.4 0 0 1 3.04 3.04c.84 2.12.64 7.12.64 9.44s.2 7.34-.64 9.44z"/></g><defs><clipPath id="a"><path fill="#fff" d="M0 0h32v32H0z"/></clipPath></defs></svg>