<svg xmlns="http://www.w3.org/2000/svg" width="29" height="29" viewBox="0 0 29 29" fill="none">
  <rect y="4.24601e-08" width="29" height="29" rx="4.14286" fill="#016938"/>
  <path d="M14.7505 6.21429C12.4353 6.21429 12.1405 6.22396 11.2318 6.26746C10.3232 6.31096 9.70451 6.45113 9.16318 6.66379C8.60251 6.88129 8.12401 7.17129 7.65034 7.64979C7.17668 8.12346 6.88668 8.60196 6.66434 9.16263C6.45168 9.70396 6.30668 10.3275 6.26801 11.2313C6.22934 12.14 6.21484 12.43 6.21484 14.75C6.21484 17.0651 6.22451 17.3551 6.26801 18.2686C6.31151 19.1773 6.45168 19.796 6.66434 20.3373C6.88184 20.898 7.17184 21.3765 7.65034 21.8501C8.12401 22.3238 8.60251 22.6186 9.16318 22.8361C9.70451 23.0488 10.328 23.189 11.2318 23.2325C12.1405 23.276 12.4305 23.2856 14.7505 23.2856C17.0657 23.2856 17.3557 23.276 18.2692 23.2325C19.1778 23.189 19.7965 23.0488 20.3427 22.8361C20.9033 22.6186 21.377 22.3238 21.8507 21.8501C22.3243 21.3765 22.6143 20.898 22.8367 20.3373C23.0445 19.796 23.1895 19.1773 23.233 18.2686C23.2717 17.36 23.2862 17.07 23.2862 14.75C23.2862 12.4348 23.2765 12.1448 23.233 11.2313C23.1895 10.3226 23.0445 9.70396 22.8367 9.16263C22.6192 8.60196 22.3243 8.12346 21.8507 7.64979C21.377 7.17613 20.9033 6.88613 20.3378 6.66379C19.7917 6.45113 19.173 6.31096 18.2643 6.26746C17.3557 6.22396 17.0657 6.21429 14.7505 6.21429ZM13.9868 7.75129C14.214 7.75129 14.4653 7.75129 14.7505 7.75129C17.027 7.75129 17.2977 7.76096 18.1967 7.79963C19.028 7.83829 19.4775 7.97846 19.782 8.09446C20.1783 8.24913 20.4635 8.43279 20.7632 8.73246C21.0628 9.03213 21.2465 9.31729 21.4012 9.71363C21.5172 10.0133 21.6573 10.4676 21.696 11.299C21.7347 12.198 21.7443 12.4686 21.7443 14.7451C21.7443 17.0216 21.7347 17.2923 21.696 18.1913C21.6573 19.0226 21.5172 19.4721 21.4012 19.7766C21.2465 20.173 21.0628 20.4581 20.7632 20.7578C20.4635 21.0575 20.1832 21.2411 19.782 21.3958C19.4823 21.5118 19.028 21.652 18.1967 21.6906C17.2977 21.7293 17.027 21.739 14.7505 21.739C12.474 21.739 12.2033 21.7293 11.3043 21.6906C10.473 21.652 10.0235 21.5118 9.71901 21.3958C9.32268 21.2411 9.03751 21.0575 8.73784 20.7578C8.43818 20.4581 8.25451 20.173 8.09984 19.7766C7.98384 19.477 7.84368 19.0226 7.80501 18.1913C7.76634 17.2923 7.75668 17.0216 7.75668 14.7451C7.75668 12.4686 7.76634 12.198 7.80501 11.299C7.84368 10.4676 7.98384 10.0181 8.09984 9.71363C8.25451 9.31729 8.43818 9.03213 8.73784 8.73246C9.03751 8.43279 9.32268 8.24913 9.71901 8.09446C10.0187 7.97846 10.473 7.83829 11.3043 7.79963C12.0922 7.76096 12.3967 7.75129 13.9868 7.75129ZM19.3035 9.16746C18.738 9.16746 18.2788 9.62663 18.2788 10.1921C18.2788 10.7576 18.738 11.2168 19.3035 11.2168C19.869 11.2168 20.3282 10.7576 20.3282 10.1921C20.3282 9.62663 19.869 9.16746 19.3035 9.16746ZM14.7505 10.3661C12.329 10.3661 10.3715 12.3285 10.3715 14.7451C10.3715 17.1666 12.3338 19.1241 14.7505 19.1241C17.172 19.1241 19.1295 17.1618 19.1295 14.7451C19.1295 12.3236 17.172 10.3661 14.7505 10.3661ZM14.7505 11.9031C16.3213 11.9031 17.5925 13.1743 17.5925 14.7451C17.5925 16.316 16.3213 17.5871 14.7505 17.5871C13.1797 17.5871 11.9085 16.316 11.9085 14.7451C11.9085 13.1743 13.1797 11.9031 14.7505 11.9031Z" fill="white"/>
</svg>
