<svg xmlns="http://www.w3.org/2000/svg" width="29" height="30" viewBox="0 0 29 30" fill="none">
  <path d="M26.3139 0.0966797L2.61704 0.0966797C1.1717 0.0966797 1.71554e-09 1.26838 3.83171e-09 2.71372L3.85272e-08 26.4105C4.06434e-08 27.8559 1.1717 29.0276 2.61704 29.0276L26.3138 29.0276C27.7592 29.0276 28.931 27.8559 28.931 26.4105L28.931 2.71372C28.931 1.26838 27.7593 0.0966797 26.3139 0.0966797ZM8.95246 25.0776C8.95246 25.4982 8.6115 25.8392 8.19087 25.8392L4.94894 25.8392C4.5283 25.8392 4.18734 25.4982 4.18734 25.0776L4.18734 11.4875C4.18734 11.0669 4.5283 10.7259 4.94894 10.7259L8.19087 10.7259C8.6115 10.7259 8.95246 11.0669 8.95246 11.4875L8.95246 25.0776ZM6.5699 9.44486C4.86896 9.44486 3.49004 8.06595 3.49004 6.365C3.49004 4.66406 4.86896 3.28514 6.5699 3.28514C8.27084 3.28514 9.64976 4.66406 9.64976 6.365C9.64976 8.06595 8.27092 9.44486 6.5699 9.44486ZM25.8947 25.1389C25.8947 25.5256 25.5812 25.8392 25.1945 25.8392L21.7156 25.8392C21.3289 25.8392 21.0154 25.5256 21.0154 25.1389L21.0154 18.7644C21.0154 17.8135 21.2943 14.5974 18.5303 14.5974C16.3863 14.5974 15.9514 16.7987 15.8641 17.7866L15.8641 25.1389C15.8641 25.5256 15.5506 25.8392 15.1638 25.8392L11.7992 25.8392C11.4125 25.8392 11.099 25.5256 11.099 25.1389L11.099 11.4262C11.099 11.0395 11.4125 10.7259 11.7992 10.7259L15.1638 10.7259C15.5505 10.7259 15.8641 11.0395 15.8641 11.4262L15.8641 12.6118C16.6591 11.4188 17.8406 10.4979 20.3561 10.4979C25.9266 10.4979 25.8947 15.7021 25.8947 18.5616L25.8947 25.1389Z" fill="#016938"/>
</svg>
