<svg xmlns="http://www.w3.org/2000/svg" width="32" height="32" fill="none"><g fill="#f17c2d" clip-path="url(#a)"><path d="M1.04 30.615H5.2a1.04 1.04 0 0 0 1.038-1.039V11.393a1.04 1.04 0 0 0-1.039-1.04H1.04c-.574 0-1.039.466-1.039 1.04v18.183c0 .574.465 1.04 1.04 1.04M1.04 7.157H5.2a1.04 1.04 0 0 0 1.038-1.04V2.424A1.04 1.04 0 0 0 5.2 1.384H1.04A1.04 1.04 0 0 0 0 2.424v3.694c0 .573.465 1.039 1.04 1.039M30.435 12.462q-.877-1.154-2.586-1.898-1.71-.744-3.775-.744-4.191 0-7.103 3.2c-.386.424-.667.332-.667-.242v-1.386a1.04 1.04 0 0 0-1.039-1.039h-3.716c-.574 0-1.04.465-1.04 1.04v18.183c0 .574.466 1.039 1.04 1.039h4.16a1.04 1.04 0 0 0 1.04-1.04v-6.323q0-3.951.476-5.417a4.47 4.47 0 0 1 1.765-2.353q1.288-.888 2.909-.888 1.265 0 2.164.622.9.621 1.3 1.742.399 1.122.399 4.94v7.678c0 .574.465 1.039 1.039 1.039h4.16a1.04 1.04 0 0 0 1.04-1.04V19.279q0-2.73-.345-4.196a6.9 6.9 0 0 0-1.221-2.62"/></g><defs><clipPath id="a"><path fill="#fff" d="M0 0h32v32H0z"/></clipPath></defs></svg>