<svg xmlns="http://www.w3.org/2000/svg" width="29" height="29" fill="none"><g clip-path="url(#a)"><path fill="#fff" d="M26.314 0H2.617A2.617 2.617 0 0 0 0 2.617v23.697a2.617 2.617 0 0 0 2.617 2.617h23.697a2.617 2.617 0 0 0 2.617-2.617V2.617A2.617 2.617 0 0 0 26.314 0M8.952 24.98c0 .421-.34.762-.761.762H4.949a.76.76 0 0 1-.762-.761V11.39c0-.42.341-.762.762-.762H8.19c.42 0 .761.341.761.762zM6.57 9.349a3.08 3.08 0 1 1 0-6.16 3.08 3.08 0 0 1 0 6.16m19.325 15.694a.7.7 0 0 1-.7.7h-3.48a.7.7 0 0 1-.7-.7v-6.374c0-.951.28-4.167-2.485-4.167-2.144 0-2.579 2.201-2.666 3.189v7.352a.7.7 0 0 1-.7.7h-3.365a.7.7 0 0 1-.7-.7V11.33a.7.7 0 0 1 .7-.7h3.365a.7.7 0 0 1 .7.7v1.186c.795-1.193 1.977-2.114 4.492-2.114 5.57 0 5.539 5.204 5.539 8.064z"/></g><defs><clipPath id="a"><path fill="#fff" d="M0 0h28.931v28.931H0z"/></clipPath></defs></svg>