<svg xmlns="http://www.w3.org/2000/svg" width="14" height="14" fill="none"><path stroke="#fff" stroke-linecap="round" stroke-linejoin="round" stroke-width="1.167" d="M8.195 1.167a5.25 5.25 0 0 1 4.667 4.631M8.195 3.5A2.92 2.92 0 0 1 10.5 5.833m2.334 4.037v1.75a1.165 1.165 0 0 1-1.272 1.167 11.55 11.55 0 0 1-5.034-1.791 11.4 11.4 0 0 1-3.5-3.5 11.54 11.54 0 0 1-1.79-5.058 1.167 1.167 0 0 1 1.16-1.271h1.75A1.17 1.17 0 0 1 5.314 2.17c.074.56.21 1.11.408 1.64a1.17 1.17 0 0 1-.262 1.23l-.741.74a9.33 9.33 0 0 0 3.5 3.5l.74-.74a1.17 1.17 0 0 1 1.231-.263c.53.198 1.08.335 1.64.409a1.167 1.167 0 0 1 1.003 1.184"/></svg>