<svg xmlns="http://www.w3.org/2000/svg" width="29" height="29" viewBox="0 0 29 29" fill="none">
  <path d="M19.6269 0.691092L15.1536 0.691092L15.1536 19.6965C15.1536 22.1872 13.3644 23.7894 11.1884 23.7894C9.01233 23.7894 7.07806 22.1872 7.07806 19.6965C7.07806 16.819 9.32695 15.2996 12.325 15.6141L12.325 10.7982C11.8899 10.7254 11.4547 10.7015 11.0917 10.7015C6.1832 10.7015 2.07227 14.6429 2.07227 19.527C2.07227 24.7017 6.13425 28.667 11.1156 28.667C15.4922 28.667 20.135 25.4509 20.135 19.3819L20.135 9.49205C22.0693 11.4263 24.4149 12.0311 26.9294 12.0311L26.9294 7.58166C23.8346 7.36373 20.4007 5.33277 19.6269 0.690491L19.6269 0.691092Z" fill="#016938"/>
</svg>
