<svg xmlns="http://www.w3.org/2000/svg" width="14" height="14" fill="none"><path fill="#fff" d="M11.113 2.864a5.73 5.73 0 0 0-4.09-1.697 5.79 5.79 0 0 0-5.78 5.78c0 1.021.268 2.013.77 2.888l-.817 2.998 3.063-.805c.846.461 1.796.706 2.765.706a5.79 5.79 0 0 0 5.78-5.78c0-1.547-.6-3-1.691-4.09m-4.09 8.89a4.8 4.8 0 0 1-2.45-.67l-.174-.106-1.82.479.484-1.774-.117-.18a4.8 4.8 0 0 1-.735-2.556 4.815 4.815 0 0 1 4.807-4.806c1.283 0 2.49.501 3.395 1.411a4.77 4.77 0 0 1 1.406 3.401c.011 2.649-2.147 4.801-4.795 4.801M9.66 8.161c-.145-.07-.857-.42-.985-.473-.135-.046-.228-.07-.327.07-.1.146-.373.473-.455.566-.082.1-.17.11-.315.035-.146-.07-.613-.227-1.16-.717a4.4 4.4 0 0 1-.806-1.004c-.082-.146-.012-.221.064-.297.064-.064.146-.17.216-.251.07-.082.1-.146.146-.24.047-.098.023-.18-.012-.25s-.326-.782-.443-1.073c-.117-.28-.24-.245-.327-.251h-.28c-.099 0-.25.035-.385.18-.128.146-.501.496-.501 1.208s.519 1.4.589 1.493c.07.1 1.02 1.558 2.467 2.182.344.152.613.24.823.303.344.111.659.094.91.059.28-.041.857-.35.974-.689.122-.338.122-.624.082-.688-.041-.064-.129-.093-.275-.163"/></svg>