<svg xmlns="http://www.w3.org/2000/svg" width="29" height="29" viewBox="0 0 29 29" fill="none">
  <path fill-rule="evenodd" clip-rule="evenodd" d="M22.9405 20.4756C22.591 21.4648 21.2019 22.2831 20.0941 22.5224C19.3358 22.6834 18.3468 22.8108 15.0147 21.43C11.2723 19.8795 6.0755 14.3564 6.0755 10.681C6.0755 8.80994 7.1543 6.6312 9.04075 6.6312C9.94845 6.6312 10.1486 6.6489 10.4473 7.36541C10.7967 8.20957 11.6493 10.2894 11.7508 10.5026C12.1699 11.3772 11.3245 11.8892 10.7111 12.6507C10.5154 12.8798 10.2936 13.1277 10.5415 13.5541C10.788 13.9718 11.6406 15.3614 12.8934 16.4768C14.5116 17.9185 15.8238 18.3788 16.2936 18.5746C16.6431 18.7196 17.0607 18.6858 17.3159 18.4132C17.6393 18.0636 18.0409 17.4837 18.4498 16.9122C18.7383 16.5032 19.1052 16.4521 19.4895 16.5971C19.749 16.687 23.0477 18.219 23.1869 18.4641C23.2899 18.6425 23.2899 19.4864 22.9405 20.4756ZM14.5029 2.12258e-08L14.4956 2.12364e-08C6.50179 3.29405e-08 9.52241e-09 6.50376 2.123e-08 14.5C2.58723e-08 17.6707 1.02226 20.6122 2.76081 22.9982L0.954107 28.3862L6.52646 26.6055C8.81891 28.1227 11.555 29 14.5029 29C22.4967 29 29 22.4962 29 14.5C29 6.50376 22.4967 9.52164e-09 14.5029 2.12258e-08Z" fill="#016938"/>
</svg>
