<svg xmlns="http://www.w3.org/2000/svg" width="32" height="32" fill="none"><path fill="#f17c2d" d="M26.575 5.363a14.82 14.82 0 0 0-10.51-4.354c-8.21 0-14.866 6.655-14.866 14.865 0 2.732.737 5.29 2.022 7.49l-.038-.07-2.109 7.703 7.88-2.067c2.05 1.139 4.497 1.809 7.101 1.809h.006c8.21-.003 14.862-6.66 14.862-14.868a14.82 14.82 0 0 0-4.349-10.507zM16.061 28.228h-.005c-2.319 0-4.49-.64-6.343-1.753l.056.03-.45-.266-4.676 1.227 1.247-4.56-.294-.466a12.23 12.23 0 0 1-1.889-6.565c0-6.822 5.531-12.353 12.353-12.353s12.353 5.53 12.353 12.353-5.529 12.353-12.352 12.353m6.776-9.251c-.37-.186-2.197-1.083-2.537-1.208-.34-.124-.589-.185-.837.187-.246.37-.958 1.207-1.175 1.455-.216.249-.434.279-.805.094a10.2 10.2 0 0 1-2.997-1.852l.01.009a11.2 11.2 0 0 1-2.037-2.521l-.028-.052c-.216-.371-.023-.572.162-.757.167-.166.372-.434.557-.65.146-.18.271-.384.366-.604l.006-.017a.678.678 0 0 0-.033-.653l.002.003c-.094-.186-.836-2.014-1.145-2.758-.302-.724-.609-.625-.836-.637-.216-.01-.464-.012-.712-.012-.395.01-.746.188-.988.463v.002a4.15 4.15 0 0 0-1.3 3.102v-.004a7.23 7.23 0 0 0 1.527 3.857l-.012-.015a16.7 16.7 0 0 0 6.251 5.564l.094.043c.548.248 1.25.513 1.968.74l.15.04c.441.14.95.222 1.478.222q.456 0 .89-.078l-.032.004a3.84 3.84 0 0 0 2.497-1.75l.01-.016a3.122 3.122 0 0 0 .214-1.784l.002.019c-.092-.155-.34-.247-.712-.434z"/></svg>