<svg xmlns="http://www.w3.org/2000/svg" width="32" height="32" viewBox="0 0 32 32" fill="none">
  <path d="M26.5752 5.36297C23.8852 2.67297 20.1692 1.00897 16.0642 1.00897C7.85522 1.00897 1.19922 7.66397 1.19922 15.874C1.19922 18.606 1.93622 21.165 3.22122 23.365L3.18322 23.295L1.07422 30.997L8.95322 28.93C11.0042 30.069 13.4512 30.739 16.0552 30.739H16.0612C24.2702 30.736 30.9232 24.08 30.9232 15.871C30.9232 11.768 29.2612 8.05397 26.5742 5.36397L26.5752 5.36297ZM16.0612 28.228H16.0562C13.7372 28.228 11.5662 27.588 9.71322 26.475L9.76922 26.506L9.31822 26.239L4.64322 27.466L5.89022 22.907L5.59622 22.44C4.41122 20.578 3.70722 18.309 3.70722 15.875C3.70722 9.05297 9.23822 3.52197 16.0602 3.52197C22.8822 3.52197 28.4132 9.05297 28.4132 15.875C28.4132 22.697 22.8842 28.228 16.0612 28.228ZM22.8372 18.977C22.4662 18.791 20.6402 17.894 20.3002 17.769C19.9592 17.645 19.7112 17.584 19.4632 17.956C19.2172 18.327 18.5052 19.163 18.2882 19.411C18.0722 19.66 17.8542 19.69 17.4832 19.505C16.3332 19.039 15.3452 18.418 14.4862 17.653L14.4962 17.662C13.6972 16.922 13.0122 16.075 12.4592 15.141L12.4312 15.089C12.2152 14.718 12.4082 14.517 12.5932 14.332C12.7602 14.166 12.9652 13.898 13.1502 13.682C13.2962 13.503 13.4212 13.298 13.5162 13.078L13.5222 13.061C13.5652 12.974 13.5902 12.873 13.5902 12.765C13.5902 12.634 13.5532 12.512 13.4892 12.408L13.4912 12.411C13.3972 12.225 12.6552 10.397 12.3462 9.65297C12.0442 8.92897 11.7372 9.02797 11.5102 9.01597C11.2942 9.00597 11.0462 9.00397 10.7982 9.00397C10.4032 9.01397 10.0522 9.19197 9.81022 9.46697L9.80922 9.46897C9.00722 10.23 8.50922 11.303 8.50922 12.492C8.50922 12.518 8.50922 12.545 8.51022 12.571V12.567C8.64122 14.034 9.19122 15.351 10.0372 16.424L10.0252 16.409C11.6292 18.788 13.7672 20.691 16.2762 21.973L16.3702 22.016C16.9182 22.264 17.6202 22.529 18.3382 22.756L18.4872 22.797C18.9292 22.937 19.4382 23.018 19.9662 23.018C20.2692 23.018 20.5672 22.991 20.8552 22.94L20.8242 22.944C21.8932 22.721 22.7802 22.076 23.3212 21.195L23.3302 21.178C23.4952 20.812 23.5912 20.385 23.5912 19.936C23.5912 19.751 23.5752 19.57 23.5442 19.394L23.5472 19.413C23.4552 19.258 23.2072 19.166 22.8352 18.979L22.8372 18.977Z" fill="white"/>
</svg>
