<svg xmlns="http://www.w3.org/2000/svg" width="29" height="29" viewBox="0 0 29 29" fill="none">
  <path d="M4.83333 3.53834e-08C2.16395 3.92918e-08 3.16833e-09 2.16395 7.07668e-09 4.83333L3.53834e-08 24.1667C3.92917e-08 26.836 2.16395 29 4.83333 29L24.1667 29C26.836 29 29 26.836 29 24.1667L29 4.83333C29 2.16395 26.836 3.16836e-09 24.1667 7.07671e-09L4.83333 3.53834e-08ZM6.27362 6.21429L11.7543 6.21429L15.6463 11.7448L20.369 6.21429L22.0952 6.21429L16.4258 12.852L23.4169 22.7857L17.9375 22.7857L13.4211 16.3691L7.94048 22.7857L6.21429 22.7857L12.6416 15.262L6.27362 6.21429ZM8.91685 7.59524L18.6577 21.4048L20.7736 21.4048L11.0328 7.59524L8.91685 7.59524Z" fill="#016938"/>
</svg>
